<svg width="255" height="51" viewBox="0 0 255 51" fill="none" xmlns="http://www.w3.org/2000/svg">
<path d="M174.562 27.2C174.562 28.8743 174.232 30.5323 173.591 32.0792C172.95 33.6261 172.011 35.0316 170.827 36.2156C169.643 37.3995 168.238 38.3387 166.691 38.9794C165.144 39.6202 163.486 39.95 161.812 39.95C160.137 39.95 158.479 39.6202 156.932 38.9794C155.385 38.3387 153.98 37.3995 152.796 36.2156C151.612 35.0316 150.673 33.6261 150.032 32.0792C149.391 30.5323 149.062 28.8743 149.062 27.2C149.062 23.8184 150.405 20.5754 152.796 18.1843C155.187 15.7933 158.43 14.45 161.812 14.45" stroke="#008883" stroke-width="2.5" stroke-linecap="round" stroke-linejoin="round"/>
<path d="M174.562 27.2C174.562 28.8743 174.232 30.5323 173.591 32.0792C172.95 33.6261 172.011 35.0316 170.827 36.2156C169.643 37.3995 168.238 38.3387 166.691 38.9794C165.144 39.6202 163.486 39.95 161.812 39.95C160.137 39.95 158.479 39.6202 156.932 38.9794C155.385 38.3387 153.98 37.3995 152.796 36.2156C151.612 35.0316 150.673 33.6261 150.032 32.0792C149.391 30.5323 149.062 28.8743 149.062 27.2C149.062 23.8184 150.405 20.5754 152.796 18.1843C155.187 15.7933 158.43 14.45 161.812 14.45" stroke="#008883" stroke-width="2.5" stroke-linecap="round" stroke-linejoin="round"/>
<path d="M168.927 17.9714C168.725 17.9714 168.536 17.9331 168.359 17.8566C168.181 17.78 168.027 17.6762 167.896 17.5452C167.765 17.4142 167.661 17.2599 167.585 17.0826C167.508 16.9052 167.47 16.7157 167.47 16.5143C167.47 16.3128 167.508 16.1234 167.585 15.946C167.661 15.7686 167.765 15.6144 167.896 15.4833C168.027 15.3523 168.181 15.2485 168.359 15.172C168.536 15.0954 168.726 15.0571 168.927 15.0571C169.128 15.0571 169.318 15.0954 169.495 15.172C169.673 15.2485 169.827 15.3523 169.958 15.4833C170.089 15.6144 170.193 15.7686 170.269 15.946C170.346 16.1234 170.384 16.3128 170.384 16.5143C170.384 16.7157 170.346 16.9052 170.269 17.0826C170.193 17.2599 170.089 17.4142 169.958 17.5452C169.827 17.6762 169.672 17.7801 169.495 17.8567C169.318 17.9334 169.129 17.9716 168.927 17.9714Z" fill="#1C2851"/>
<path d="M173.55 22.5173C173.349 22.5173 173.159 22.479 172.982 22.4025C172.805 22.3259 172.651 22.2221 172.519 22.0911C172.388 21.9601 172.285 21.8058 172.208 21.6285C172.132 21.4511 172.093 21.2616 172.093 21.0602C172.093 20.8587 172.131 20.6693 172.208 20.4919C172.285 20.3145 172.389 20.1603 172.519 20.0292C172.65 19.8982 172.805 19.7944 172.982 19.7179C173.16 19.6413 173.349 19.603 173.55 19.603C173.752 19.603 173.941 19.6413 174.119 19.7179C174.296 19.7944 174.45 19.8982 174.581 20.0292C174.712 20.1603 174.816 20.3145 174.893 20.4919C174.97 20.6693 175.008 20.8587 175.008 21.0602C175.007 21.2616 174.969 21.4511 174.893 21.6285C174.816 21.8058 174.713 21.9601 174.581 22.0911C174.45 22.2221 174.296 22.326 174.119 22.4026C173.942 22.4793 173.752 22.5175 173.55 22.5173Z" fill="#1C2851"/>
<path d="M162.144 16.4438C161.876 16.4438 161.623 16.3928 161.387 16.2907C161.15 16.1887 160.945 16.0503 160.77 15.8755C160.595 15.7008 160.456 15.4952 160.355 15.2587C160.253 15.0222 160.202 14.7696 160.201 14.501C160.201 14.2323 160.252 13.9798 160.355 13.7432C160.457 13.5067 160.595 13.3011 160.77 13.1264C160.944 12.9517 161.15 12.8133 161.387 12.7112C161.623 12.6091 161.876 12.5581 162.144 12.5581C162.413 12.5581 162.665 12.6091 162.902 12.7112C163.139 12.8133 163.344 12.9517 163.519 13.1264C163.693 13.3011 163.832 13.5067 163.934 13.7432C164.037 13.9798 164.088 14.2323 164.087 14.501C164.087 14.7696 164.036 15.0222 163.934 15.2587C163.832 15.4952 163.694 15.7008 163.519 15.8755C163.344 16.0503 163.138 16.1887 162.902 16.2909C162.666 16.3931 162.413 16.4441 162.144 16.4438Z" fill="#008883"/>
<path d="M174.358 29.7817C174.089 29.7817 173.836 29.7307 173.6 29.6286C173.364 29.5265 173.158 29.3882 172.983 29.2134C172.808 29.0387 172.67 28.8331 172.568 28.5966C172.466 28.3601 172.415 28.1075 172.415 27.8389C172.415 27.5702 172.466 27.3176 172.568 27.0811C172.67 26.8446 172.808 26.639 172.983 26.4643C173.158 26.2896 173.363 26.1512 173.6 26.0491C173.837 25.947 174.089 25.896 174.358 25.896C174.626 25.896 174.879 25.947 175.115 26.0491C175.352 26.1512 175.558 26.2896 175.732 26.4643C175.907 26.639 176.045 26.8446 176.148 27.0811C176.25 27.3176 176.301 27.5702 176.301 27.8389C176.3 28.1075 176.249 28.3601 176.147 28.5966C176.046 28.8331 175.907 29.0387 175.732 29.2134C175.557 29.3882 175.351 29.5266 175.115 29.6288C174.879 29.731 174.627 29.782 174.358 29.7817Z" fill="#008883"/>
<path d="M167.973 26.8266L166.321 25.1796C166.301 25.1558 166.288 25.1265 166.284 25.0954V21.9382C166.284 21.7987 166.229 21.6649 166.13 21.5662C166.031 21.4675 165.898 21.4121 165.758 21.4121H164.179C164.04 21.4121 163.906 21.4675 163.807 21.5662C163.709 21.6649 163.653 21.7987 163.653 21.9382V22.1908C163.653 22.2165 163.646 22.2416 163.632 22.2631C163.618 22.2846 163.598 22.3016 163.574 22.3118C163.552 22.3259 163.527 22.3334 163.501 22.3334C163.475 22.3334 163.449 22.3259 163.427 22.3118L162.185 21.0385C162.136 20.9891 162.078 20.95 162.014 20.9233C161.95 20.8966 161.881 20.8828 161.812 20.8828C161.742 20.8828 161.673 20.8966 161.609 20.9233C161.545 20.95 161.487 20.9891 161.438 21.0385L155.65 26.8266C155.577 26.9005 155.527 26.9945 155.508 27.0966C155.488 27.1987 155.499 27.3043 155.539 27.4001C155.579 27.4962 155.646 27.5785 155.732 27.6365C155.818 27.6946 155.92 27.7258 156.024 27.7263H156.681C156.716 27.7263 156.75 27.7402 156.774 27.7649C156.799 27.7895 156.813 27.823 156.813 27.8579V32.9882C156.813 33.1278 156.868 33.2616 156.967 33.3603C157.066 33.459 157.199 33.5144 157.339 33.5144H166.284C166.424 33.5144 166.558 33.459 166.656 33.3603C166.755 33.2616 166.81 33.1278 166.81 32.9882V27.8579C166.81 27.823 166.824 27.7895 166.849 27.7649C166.874 27.7402 166.907 27.7263 166.942 27.7263H167.6C167.704 27.7258 167.805 27.6946 167.891 27.6365C167.977 27.5785 168.044 27.4962 168.084 27.4001C168.124 27.3043 168.135 27.1987 168.115 27.0966C168.096 26.9945 168.046 26.9005 167.973 26.8266Z" fill="#1C2851"/>
<path d="M240.306 40.5839C237.554 40.5839 235.106 40.0079 232.962 38.8559C230.85 37.7039 229.17 36.1359 227.922 34.1519C226.706 32.1359 226.098 29.8479 226.098 27.2879C226.098 24.6959 226.706 22.4079 227.922 20.4239C229.17 18.4079 230.85 16.8399 232.962 15.7199C235.106 14.5679 237.554 13.9919 240.306 13.9919C243.026 13.9919 245.458 14.5679 247.602 15.7199C249.746 16.8399 251.426 18.3919 252.642 20.3759C253.858 22.3599 254.466 24.6639 254.466 27.2879C254.466 29.8479 253.858 32.1359 252.642 34.1519C251.426 36.1359 249.746 37.7039 247.602 38.8559C245.458 40.0079 243.026 40.5839 240.306 40.5839ZM240.306 34.4399C241.554 34.4399 242.674 34.1519 243.666 33.5759C244.658 32.9999 245.442 32.1839 246.018 31.1279C246.594 30.0399 246.882 28.7599 246.882 27.2879C246.882 25.7839 246.594 24.5039 246.018 23.4479C245.442 22.3919 244.658 21.5759 243.666 20.9999C242.674 20.4239 241.554 20.1359 240.306 20.1359C239.058 20.1359 237.938 20.4239 236.946 20.9999C235.954 21.5759 235.154 22.3919 234.546 23.4479C233.97 24.5039 233.682 25.7839 233.682 27.2879C233.682 28.7599 233.97 30.0399 234.546 31.1279C235.154 32.1839 235.954 32.9999 236.946 33.5759C237.938 34.1519 239.058 34.4399 240.306 34.4399Z" fill="#008883"/>
<path d="M213.812 40.2V16.2H220.812V40.2H213.812Z" fill="#008883"/>
<path d="M221.2 2.74413C222.21 3.71194 222.788 5.01825 222.811 6.38684C222.834 7.75542 222.301 9.07899 221.324 10.0777L221.2 10.2007L218.608 12.6856C218.279 13.0008 217.837 13.1843 217.372 13.199C216.907 13.2137 216.454 13.0584 216.104 12.7647L216.016 12.6856L213.422 10.2001C212.391 9.21138 211.812 7.87038 211.812 6.47212C211.812 5.07385 212.391 3.73286 213.422 2.74413C214.454 1.75541 215.853 1.19995 217.311 1.19995C218.77 1.19995 220.169 1.75541 221.2 2.74413ZM217.311 4.71474C217.071 4.71474 216.832 4.7602 216.61 4.84851C216.387 4.93683 216.185 5.06628 216.015 5.22946C215.845 5.39265 215.71 5.58638 215.618 5.7996C215.526 6.01281 215.478 6.24134 215.478 6.47212C215.478 6.7029 215.526 6.93142 215.618 7.14464C215.71 7.35785 215.845 7.55158 216.015 7.71477C216.185 7.87796 216.387 8.00741 216.61 8.09572C216.832 8.18404 217.071 8.2295 217.311 8.2295C217.798 8.2295 218.264 8.04434 218.608 7.71477C218.952 7.3852 219.145 6.9382 219.145 6.47212C219.145 6.00603 218.952 5.55904 218.608 5.22946C218.264 4.89989 217.798 4.71474 217.311 4.71474Z" fill="#1C2851"/>
<path d="M195.704 40.5839C193.528 40.5839 191.624 40.1039 189.992 39.1439C188.36 38.1839 187.08 36.7279 186.152 34.7759C185.256 32.7919 184.808 30.2959 184.808 27.2879C184.808 24.2479 185.24 21.7519 186.104 19.7999C186.968 17.8479 188.216 16.3919 189.848 15.4319C191.48 14.4719 193.432 13.9919 195.704 13.9919C198.136 13.9919 200.312 14.5519 202.232 15.6719C204.184 16.7599 205.72 18.2959 206.84 20.2799C207.992 22.2639 208.568 24.5999 208.568 27.2879C208.568 30.0079 207.992 32.3599 206.84 34.3439C205.72 36.3279 204.184 37.8639 202.232 38.9519C200.312 40.0399 198.136 40.5839 195.704 40.5839ZM180.44 49.5119V14.3759H187.592V19.6559L187.448 27.3359L187.928 34.9679V49.5119H180.44ZM194.408 34.4399C195.656 34.4399 196.76 34.1519 197.72 33.5759C198.712 32.9999 199.496 32.1839 200.072 31.1279C200.68 30.0399 200.984 28.7599 200.984 27.2879C200.984 25.7839 200.68 24.5039 200.072 23.4479C199.496 22.3919 198.712 21.5759 197.72 20.9999C196.76 20.4239 195.656 20.1359 194.408 20.1359C193.16 20.1359 192.04 20.4239 191.048 20.9999C190.056 21.5759 189.272 22.3919 188.696 23.4479C188.12 24.5039 187.832 25.7839 187.832 27.2879C187.832 28.7599 188.12 30.0399 188.696 31.1279C189.272 32.1839 190.056 32.9999 191.048 33.5759C192.04 34.1519 193.16 34.4399 194.408 34.4399Z" fill="#008883"/>
<path d="M128.184 40.86C125.214 40.86 122.446 40.3834 119.879 39.43C117.349 38.44 115.149 37.0467 113.279 35.25C111.409 33.4534 109.942 31.345 108.879 28.925C107.852 26.505 107.339 23.8467 107.339 20.95C107.339 18.0534 107.852 15.395 108.879 12.975C109.942 10.555 111.409 8.4467 113.279 6.65004C115.186 4.85337 117.404 3.47837 119.934 2.52504C122.464 1.53504 125.232 1.04004 128.239 1.04004C131.576 1.04004 134.582 1.62671 137.259 2.80004C139.972 3.93671 142.246 5.62337 144.079 7.86004L138.359 13.14C137.039 11.6367 135.572 10.5184 133.959 9.78504C132.346 9.01504 130.586 8.63004 128.679 8.63004C126.882 8.63004 125.232 8.92337 123.729 9.51004C122.226 10.0967 120.924 10.94 119.824 12.04C118.724 13.14 117.862 14.4417 117.239 15.945C116.652 17.4484 116.359 19.1167 116.359 20.95C116.359 22.7834 116.652 24.4517 117.239 25.955C117.862 27.4584 118.724 28.76 119.824 29.86C120.924 30.96 122.226 31.8034 123.729 32.39C125.232 32.9767 126.882 33.27 128.679 33.27C130.586 33.27 132.346 32.9034 133.959 32.17C135.572 31.4 137.039 30.245 138.359 28.705L144.079 33.985C142.246 36.2217 139.972 37.9267 137.259 39.1C134.582 40.2734 131.557 40.86 128.184 40.86Z" fill="#008883"/>
<path d="M90.5132 14.7463C92.8739 14.7464 95.0001 15.3038 96.8823 16.426L97.2358 16.6409C98.977 17.7382 100.358 19.1982 101.376 21.0168L101.581 21.386C102.567 23.2484 103.055 25.3789 103.055 27.7678C103.055 30.285 102.499 32.5231 101.376 34.4709C100.29 36.411 98.7909 37.9429 96.8823 39.0618L96.8804 39.0627C94.9982 40.1524 92.8728 40.6936 90.5132 40.6936C88.2176 40.6936 86.1408 40.1683 84.2915 39.1116L84.2876 39.1096C82.5889 38.1086 81.2129 36.7437 80.1587 35.0227V49.8616H77.8755V14.9377H80.1108V20.5833C81.1705 18.7988 82.5629 17.3945 84.2876 16.3782C86.1375 15.2881 88.2158 14.7463 90.5132 14.7463ZM90.4653 16.9338C88.4744 16.9338 86.7137 17.4002 85.1733 18.3245L85.1685 18.3264C83.6246 19.2218 82.4046 20.4716 81.5063 22.0823C80.6122 23.6856 80.1587 25.5771 80.1587 27.7678C80.1587 29.8925 80.612 31.7692 81.5083 33.4075C82.407 35.05 83.6264 36.3148 85.1685 37.2092C86.7095 38.1031 88.4722 38.554 90.4653 38.554C92.4252 38.5539 94.1716 38.1035 95.7134 37.2092L95.7163 37.2073C97.2899 36.3124 98.5246 35.0482 99.4224 33.4075C100.319 31.7693 100.771 29.8924 100.771 27.7678C100.771 25.577 100.318 23.6856 99.4233 22.0823C98.5261 20.4734 97.2917 19.2242 95.7163 18.3284L95.7085 18.3245V18.3235C94.1675 17.399 92.4228 16.9339 90.4653 16.9338Z" fill="#1C2851" stroke="#1C2851" stroke-width="0.7"/>
<path d="M58.2163 14.7463C60.577 14.7464 62.7032 15.3038 64.5854 16.426L64.939 16.6409C66.6801 17.7382 68.0615 19.1982 69.0796 21.0168L69.2837 21.386C70.2699 23.2484 70.7583 25.3789 70.7583 27.7678C70.7583 30.285 70.2021 32.5231 69.0796 34.4709C67.9936 36.411 66.494 37.9429 64.5854 39.0618L64.5835 39.0627C62.7013 40.1524 60.5759 40.6936 58.2163 40.6936C55.9208 40.6936 53.844 40.1683 51.9946 39.1116L51.9907 39.1096C50.292 38.1086 48.916 36.7437 47.8618 35.0227V49.8616H45.5786V14.9377H47.814V20.5833C48.8736 18.7988 50.2661 17.3945 51.9907 16.3782C53.8406 15.2881 55.9189 14.7463 58.2163 14.7463ZM58.1685 16.9338C56.1775 16.9338 54.4168 17.4002 52.8765 18.3245L52.8716 18.3264C51.3278 19.2218 50.1078 20.4716 49.2095 22.0823C48.3153 23.6856 47.8618 25.5771 47.8618 27.7678C47.8618 29.8925 48.3151 31.7692 49.2114 33.4075C50.1102 35.05 51.3295 36.3148 52.8716 37.2092C54.4127 38.1031 56.1753 38.554 58.1685 38.554C60.1284 38.5539 61.8747 38.1035 63.4165 37.2092L63.4194 37.2073C64.9931 36.3124 66.2278 35.0482 67.1255 33.4075C68.0217 31.7693 68.4741 29.8924 68.4741 27.7678C68.4741 25.577 68.0207 23.6856 67.1265 22.0823C66.2292 20.4734 64.9948 19.2242 63.4194 18.3284L63.4116 18.3245V18.3235C61.8706 17.399 60.1259 16.9339 58.1685 16.9338Z" fill="#1C2851" stroke="#1C2851" stroke-width="0.7"/>
<path d="M22.2158 0.650391L22.3096 0.852539L40.4541 40.0527L40.6836 40.5498H37.8398L37.7461 40.3457L32.5664 29.0703H9.56934L4.38965 40.3457L4.2959 40.5498H1.45215L1.68262 40.0527L19.8262 0.852539L19.9199 0.650391H22.2158ZM10.6367 26.7461H31.499L21.0674 4.04004L10.6367 26.7461Z" fill="#1C2851" stroke="#1C2851" stroke-width="0.7"/>
</svg>
