<svg width="255" height="51" viewBox="0 0 255 51" fill="none" xmlns="http://www.w3.org/2000/svg">
<path d="M174.562 27.2C174.562 28.8743 174.232 30.5323 173.591 32.0792C172.95 33.6261 172.011 35.0316 170.827 36.2156C169.643 37.3995 168.238 38.3387 166.691 38.9794C165.144 39.6202 163.486 39.95 161.812 39.95C160.137 39.95 158.479 39.6202 156.932 38.9794C155.385 38.3387 153.98 37.3995 152.796 36.2156C151.612 35.0316 150.673 33.6261 150.032 32.0792C149.391 30.5323 149.062 28.8743 149.062 27.2C149.062 23.8184 150.405 20.5754 152.796 18.1843C155.187 15.7933 158.43 14.45 161.812 14.45" stroke="white" stroke-width="2.5" stroke-linecap="round" stroke-linejoin="round"/>
<path d="M174.562 27.2C174.562 28.8743 174.232 30.5323 173.591 32.0792C172.95 33.6261 172.011 35.0316 170.827 36.2156C169.643 37.3995 168.238 38.3387 166.691 38.9794C165.144 39.6202 163.486 39.95 161.812 39.95C160.137 39.95 158.479 39.6202 156.932 38.9794C155.385 38.3387 153.98 37.3995 152.796 36.2156C151.612 35.0316 150.673 33.6261 150.032 32.0792C149.391 30.5323 149.062 28.8743 149.062 27.2C149.062 23.8184 150.405 20.5754 152.796 18.1843C155.187 15.7933 158.43 14.45 161.812 14.45" stroke="white" stroke-width="2.5" stroke-linecap="round" stroke-linejoin="round"/>
<path d="M168.927 17.9714C168.726 17.9714 168.536 17.9331 168.359 17.8566C168.182 17.78 168.027 17.6762 167.896 17.5452C167.765 17.4142 167.661 17.2599 167.585 17.0826C167.508 16.9052 167.47 16.7157 167.47 16.5143C167.47 16.3128 167.508 16.1234 167.585 15.946C167.661 15.7686 167.765 15.6144 167.896 15.4833C168.027 15.3523 168.181 15.2485 168.359 15.172C168.536 15.0954 168.726 15.0571 168.927 15.0571C169.129 15.0571 169.318 15.0954 169.495 15.172C169.673 15.2485 169.827 15.3523 169.958 15.4833C170.089 15.6144 170.193 15.7686 170.27 15.946C170.346 16.1234 170.385 16.3128 170.384 16.5143C170.384 16.7157 170.346 16.9052 170.269 17.0826C170.193 17.2599 170.089 17.4142 169.958 17.5452C169.827 17.6762 169.673 17.7801 169.495 17.8567C169.318 17.9334 169.129 17.9716 168.927 17.9714Z" fill="white"/>
<path d="M173.551 22.5173C173.349 22.5173 173.16 22.479 172.982 22.4025C172.805 22.3259 172.651 22.2221 172.52 22.0911C172.388 21.9601 172.285 21.8058 172.208 21.6285C172.132 21.4511 172.093 21.2616 172.093 21.0602C172.093 20.8587 172.132 20.6693 172.208 20.4919C172.285 20.3145 172.389 20.1603 172.52 20.0292C172.651 19.8982 172.805 19.7944 172.982 19.7179C173.16 19.6413 173.349 19.603 173.551 19.603C173.752 19.603 173.941 19.6413 174.119 19.7179C174.296 19.7944 174.451 19.8982 174.581 20.0292C174.712 20.1603 174.816 20.3145 174.893 20.4919C174.97 20.6693 175.008 20.8587 175.008 21.0602C175.007 21.2616 174.969 21.4511 174.893 21.6285C174.817 21.8058 174.713 21.9601 174.581 22.0911C174.45 22.2221 174.296 22.326 174.119 22.4026C173.942 22.4793 173.752 22.5175 173.551 22.5173Z" fill="white"/>
<path d="M162.144 16.4437C161.875 16.4437 161.623 16.3927 161.386 16.2906C161.15 16.1886 160.944 16.0502 160.77 15.8754C160.595 15.7007 160.456 15.4951 160.354 15.2586C160.252 15.0221 160.201 14.7695 160.201 14.5009C160.201 14.2322 160.252 13.9797 160.354 13.7432C160.457 13.5067 160.595 13.301 160.77 13.1263C160.944 12.9516 161.15 12.8132 161.386 12.7111C161.623 12.6091 161.876 12.558 162.144 12.558C162.413 12.558 162.665 12.6091 162.902 12.7111C163.139 12.8132 163.344 12.9516 163.519 13.1263C163.693 13.301 163.832 13.5067 163.934 13.7432C164.036 13.9797 164.087 14.2322 164.087 14.5009C164.087 14.7695 164.036 15.0221 163.934 15.2586C163.832 15.4951 163.694 15.7007 163.519 15.8754C163.344 16.0502 163.138 16.1886 162.902 16.2908C162.666 16.393 162.413 16.444 162.144 16.4437Z" fill="white"/>
<path d="M174.358 29.7816C174.089 29.7816 173.836 29.7306 173.6 29.6285C173.363 29.5264 173.158 29.388 172.983 29.2133C172.808 29.0386 172.67 28.833 172.568 28.5965C172.466 28.3599 172.415 28.1074 172.415 27.8387C172.415 27.5701 172.466 27.3175 172.568 27.081C172.67 26.8445 172.808 26.6389 172.983 26.4642C173.158 26.2894 173.363 26.151 173.6 26.049C173.836 25.9469 174.089 25.8959 174.358 25.8959C174.626 25.8959 174.879 25.9469 175.115 26.049C175.352 26.151 175.558 26.2894 175.732 26.4642C175.907 26.6389 176.045 26.8445 176.147 27.081C176.25 27.3175 176.301 27.5701 176.3 27.8387C176.3 28.1074 176.249 28.3599 176.147 28.5965C176.046 28.833 175.907 29.0386 175.732 29.2133C175.557 29.388 175.351 29.5265 175.115 29.6287C174.879 29.7309 174.627 29.7819 174.358 29.7816Z" fill="white"/>
<path d="M167.973 26.8266L166.321 25.1796C166.301 25.1558 166.288 25.1265 166.284 25.0954V21.9382C166.284 21.7987 166.229 21.6649 166.13 21.5662C166.031 21.4675 165.897 21.4121 165.758 21.4121H164.179C164.04 21.4121 163.906 21.4675 163.807 21.5662C163.709 21.6649 163.653 21.7987 163.653 21.9382V22.1908C163.653 22.2165 163.646 22.2416 163.632 22.2631C163.618 22.2846 163.598 22.3016 163.574 22.3118C163.552 22.3259 163.527 22.3334 163.501 22.3334C163.474 22.3334 163.449 22.3259 163.427 22.3118L162.185 21.0385C162.136 20.9891 162.078 20.95 162.014 20.9233C161.95 20.8966 161.881 20.8828 161.812 20.8828C161.742 20.8828 161.673 20.8966 161.609 20.9233C161.545 20.95 161.487 20.9891 161.438 21.0385L155.65 26.8266C155.577 26.9005 155.527 26.9945 155.508 27.0966C155.488 27.1987 155.499 27.3043 155.539 27.4001C155.579 27.4962 155.646 27.5785 155.732 27.6365C155.818 27.6946 155.92 27.7258 156.023 27.7263H156.681C156.716 27.7263 156.749 27.7402 156.774 27.7649C156.799 27.7895 156.813 27.823 156.813 27.8579V32.9882C156.813 33.1278 156.868 33.2616 156.967 33.3603C157.065 33.459 157.199 33.5144 157.339 33.5144H166.284C166.424 33.5144 166.558 33.459 166.656 33.3603C166.755 33.2616 166.81 33.1278 166.81 32.9882V27.8579C166.81 27.823 166.824 27.7895 166.849 27.7649C166.874 27.7402 166.907 27.7263 166.942 27.7263H167.6C167.703 27.7258 167.805 27.6946 167.891 27.6365C167.977 27.5785 168.044 27.4962 168.084 27.4001C168.124 27.3043 168.135 27.1987 168.115 27.0966C168.096 26.9945 168.046 26.9005 167.973 26.8266Z" fill="white"/>
<path d="M240.306 40.5839C237.554 40.5839 235.106 40.0079 232.962 38.8559C230.85 37.7039 229.17 36.1359 227.922 34.1519C226.706 32.1359 226.098 29.8479 226.098 27.2879C226.098 24.6959 226.706 22.4079 227.922 20.4239C229.17 18.4079 230.85 16.8399 232.962 15.7199C235.106 14.5679 237.554 13.9919 240.306 13.9919C243.026 13.9919 245.458 14.5679 247.602 15.7199C249.746 16.8399 251.426 18.3919 252.642 20.3759C253.858 22.3599 254.466 24.6639 254.466 27.2879C254.466 29.8479 253.858 32.1359 252.642 34.1519C251.426 36.1359 249.746 37.7039 247.602 38.8559C245.458 40.0079 243.026 40.5839 240.306 40.5839ZM240.306 34.4399C241.554 34.4399 242.674 34.1519 243.666 33.5759C244.658 32.9999 245.442 32.1839 246.018 31.1279C246.594 30.0399 246.882 28.7599 246.882 27.2879C246.882 25.7839 246.594 24.5039 246.018 23.4479C245.442 22.3919 244.658 21.5759 243.666 20.9999C242.674 20.4239 241.554 20.1359 240.306 20.1359C239.058 20.1359 237.938 20.4239 236.946 20.9999C235.954 21.5759 235.154 22.3919 234.546 23.4479C233.97 24.5039 233.682 25.7839 233.682 27.2879C233.682 28.7599 233.97 30.0399 234.546 31.1279C235.154 32.1839 235.954 32.9999 236.946 33.5759C237.938 34.1519 239.058 34.4399 240.306 34.4399Z" fill="white"/>
<path d="M213.812 40.2V16.2H220.812V40.2H213.812Z" fill="white"/>
<path d="M221.2 2.74413C222.21 3.71194 222.788 5.01825 222.811 6.38684C222.834 7.75542 222.301 9.07899 221.324 10.0777L221.2 10.2007L218.608 12.6856C218.279 13.0008 217.837 13.1843 217.372 13.199C216.907 13.2137 216.454 13.0584 216.104 12.7647L216.016 12.6856L213.422 10.2001C212.391 9.21138 211.812 7.87038 211.812 6.47212C211.812 5.07385 212.391 3.73286 213.422 2.74413C214.454 1.75541 215.853 1.19995 217.311 1.19995C218.77 1.19995 220.169 1.75541 221.2 2.74413ZM217.311 4.71474C217.071 4.71474 216.832 4.7602 216.61 4.84851C216.387 4.93683 216.185 5.06628 216.015 5.22946C215.845 5.39265 215.71 5.58638 215.618 5.7996C215.526 6.01281 215.478 6.24134 215.478 6.47212C215.478 6.7029 215.526 6.93142 215.618 7.14464C215.71 7.35785 215.845 7.55158 216.015 7.71477C216.185 7.87796 216.387 8.00741 216.61 8.09572C216.832 8.18404 217.071 8.2295 217.311 8.2295C217.798 8.2295 218.264 8.04434 218.608 7.71477C218.952 7.3852 219.145 6.9382 219.145 6.47212C219.145 6.00603 218.952 5.55904 218.608 5.22946C218.264 4.89989 217.798 4.71474 217.311 4.71474Z" fill="white"/>
<path d="M195.704 40.5839C193.528 40.5839 191.624 40.1039 189.992 39.1439C188.36 38.1839 187.08 36.7279 186.152 34.7759C185.256 32.7919 184.808 30.2959 184.808 27.2879C184.808 24.2479 185.24 21.7519 186.104 19.7999C186.968 17.8479 188.216 16.3919 189.848 15.4319C191.48 14.4719 193.432 13.9919 195.704 13.9919C198.136 13.9919 200.312 14.5519 202.232 15.6719C204.184 16.7599 205.72 18.2959 206.84 20.2799C207.992 22.2639 208.568 24.5999 208.568 27.2879C208.568 30.0079 207.992 32.3599 206.84 34.3439C205.72 36.3279 204.184 37.8639 202.232 38.9519C200.312 40.0399 198.136 40.5839 195.704 40.5839ZM180.44 49.5119V14.3759H187.592V19.6559L187.448 27.3359L187.928 34.9679V49.5119H180.44ZM194.408 34.4399C195.656 34.4399 196.76 34.1519 197.72 33.5759C198.712 32.9999 199.496 32.1839 200.072 31.1279C200.68 30.0399 200.984 28.7599 200.984 27.2879C200.984 25.7839 200.68 24.5039 200.072 23.4479C199.496 22.3919 198.712 21.5759 197.72 20.9999C196.76 20.4239 195.656 20.1359 194.408 20.1359C193.16 20.1359 192.04 20.4239 191.048 20.9999C190.056 21.5759 189.272 22.3919 188.696 23.4479C188.12 24.5039 187.832 25.7839 187.832 27.2879C187.832 28.7599 188.12 30.0399 188.696 31.1279C189.272 32.1839 190.056 32.9999 191.048 33.5759C192.04 34.1519 193.16 34.4399 194.408 34.4399Z" fill="white"/>
<path d="M128.184 40.86C125.214 40.86 122.446 40.3834 119.879 39.43C117.349 38.44 115.149 37.0467 113.279 35.25C111.409 33.4534 109.942 31.345 108.879 28.925C107.852 26.505 107.339 23.8467 107.339 20.95C107.339 18.0534 107.852 15.395 108.879 12.975C109.942 10.555 111.409 8.4467 113.279 6.65004C115.186 4.85337 117.404 3.47837 119.934 2.52504C122.464 1.53504 125.232 1.04004 128.239 1.04004C131.576 1.04004 134.582 1.62671 137.259 2.80004C139.972 3.93671 142.246 5.62337 144.079 7.86004L138.359 13.14C137.039 11.6367 135.572 10.5184 133.959 9.78504C132.346 9.01504 130.586 8.63004 128.679 8.63004C126.882 8.63004 125.232 8.92337 123.729 9.51004C122.226 10.0967 120.924 10.94 119.824 12.04C118.724 13.14 117.862 14.4417 117.239 15.945C116.652 17.4484 116.359 19.1167 116.359 20.95C116.359 22.7834 116.652 24.4517 117.239 25.955C117.862 27.4584 118.724 28.76 119.824 29.86C120.924 30.96 122.226 31.8034 123.729 32.39C125.232 32.9767 126.882 33.27 128.679 33.27C130.586 33.27 132.346 32.9034 133.959 32.17C135.572 31.4 137.039 30.245 138.359 28.705L144.079 33.985C142.246 36.2217 139.972 37.9267 137.259 39.1C134.582 40.2734 131.557 40.86 128.184 40.86Z" fill="white"/>
<path d="M90.5132 14.7708C92.8698 14.7708 94.9916 15.3278 96.8696 16.4475L97.2222 16.6624C98.96 17.7575 100.339 19.2143 101.355 21.0295L101.558 21.3977C102.542 23.2561 103.03 25.3823 103.03 27.7678C103.03 30.2811 102.475 32.5147 101.355 34.4583C100.271 36.3947 98.7746 37.9236 96.8696 39.0403L96.8677 39.0413C94.9897 40.1284 92.8688 40.6692 90.5132 40.6692C88.2217 40.6692 86.1494 40.1444 84.3042 39.0901L84.3003 39.0881C82.5809 38.0749 81.1921 36.6885 80.1343 34.9358V49.8372H77.8999V14.9631H80.0864V20.6741C81.1496 18.8559 82.5544 17.4285 84.3003 16.3997C86.1461 15.312 88.2199 14.7708 90.5132 14.7708ZM90.4653 16.9094C88.4703 16.9094 86.7053 17.3762 85.1606 18.303L85.1558 18.3049C83.608 19.2027 82.3852 20.4561 81.4849 22.0706C80.5884 23.6782 80.1343 25.5736 80.1343 27.7678C80.1343 29.8963 80.5872 31.7777 81.4858 33.4202C82.3866 35.0664 83.6097 36.3339 85.1558 37.2307C86.701 38.127 88.4683 38.5793 90.4653 38.5793C92.4293 38.5793 94.1801 38.1274 95.7261 37.2307L95.728 37.2297C97.3059 36.3325 98.5439 35.0648 99.4438 33.4202C100.343 31.7777 100.796 29.8963 100.796 27.7678C100.796 25.5735 100.341 23.6782 99.4448 22.0706C98.5453 20.4576 97.3076 19.2051 95.728 18.3069L95.7222 18.303C94.1768 17.3758 92.4272 16.9095 90.4653 16.9094Z" fill="white" stroke="white" stroke-width="0.65"/>
<path d="M58.2163 14.7708C60.5729 14.7708 62.6947 15.3278 64.5728 16.4475L64.9253 16.6624C66.6631 17.7575 68.042 19.2143 69.0581 21.0295L69.2612 21.3977C70.2454 23.2561 70.7329 25.3823 70.7329 27.7678C70.7329 30.2811 70.1781 32.5147 69.0581 34.4583C67.9742 36.3947 66.4777 37.9236 64.5728 39.0403L64.5708 39.0413C62.6929 40.1284 60.5719 40.6692 58.2163 40.6692C55.9248 40.6692 53.8525 40.1444 52.0073 39.0901L52.0034 39.0881C50.284 38.0749 48.8953 36.6885 47.8374 34.9358V49.8372H45.603V14.9631H47.7896V20.6741C48.8528 18.8559 50.2575 17.4285 52.0034 16.3997C53.8492 15.312 55.923 14.7708 58.2163 14.7708ZM58.1685 16.9094C56.1735 16.9094 54.4084 17.3762 52.8638 18.303L52.8589 18.3049C51.3111 19.2027 50.0884 20.4561 49.188 22.0706C48.2915 23.6782 47.8374 25.5736 47.8374 27.7678C47.8374 29.8963 48.2903 31.7777 49.189 33.4202C50.0898 35.0664 51.3128 36.3339 52.8589 37.2307C54.4042 38.127 56.1714 38.5793 58.1685 38.5793C60.1324 38.5793 61.8832 38.1274 63.4292 37.2307L63.4312 37.2297C65.009 36.3325 66.247 35.0648 67.147 33.4202C68.0457 31.7777 68.4995 29.8963 68.4995 27.7678C68.4995 25.5735 68.0445 23.6782 67.1479 22.0706C66.2484 20.4576 65.0107 19.2051 63.4312 18.3069L63.4253 18.303C61.8799 17.3758 60.1304 16.9095 58.1685 16.9094Z" fill="white" stroke="white" stroke-width="0.65"/>
<path d="M22.1992 0.674805L22.2871 0.863281L40.4307 40.0635L40.6445 40.5254H37.8555L37.7686 40.3359L32.582 29.0449H9.55371L4.36719 40.3359L4.28027 40.5254H1.49121L1.70508 40.0635L19.8486 0.863281L19.9365 0.674805H22.1992ZM10.5986 26.7715H31.5371L21.0674 3.98047L10.5986 26.7715Z" fill="white" stroke="white" stroke-width="0.65"/>
</svg>
