<svg width="148" height="99" viewBox="0 0 148 99" fill="none" xmlns="http://www.w3.org/2000/svg">
<path d="M67.2227 76.2C67.2227 77.8743 66.8929 79.5323 66.2521 81.0792C65.6114 82.6261 64.6722 84.0316 63.4883 85.2156C62.3043 86.3995 60.8988 87.3387 59.3519 87.9794C57.805 88.6202 56.147 88.95 54.4727 88.95C52.7983 88.95 51.1403 88.6202 49.5934 87.9794C48.0465 87.3387 46.641 86.3995 45.457 85.2156C44.2731 84.0316 43.3339 82.6261 42.6932 81.0792C42.0524 79.5323 41.7227 77.8743 41.7227 76.2C41.7227 72.8184 43.066 69.5754 45.457 67.1843C47.8481 64.7933 51.0911 63.45 54.4727 63.45" stroke="#008883" stroke-width="2.5" stroke-linecap="round" stroke-linejoin="round"/>
<path d="M67.2227 76.2C67.2227 77.8743 66.8929 79.5323 66.2521 81.0792C65.6114 82.6261 64.6722 84.0316 63.4883 85.2156C62.3043 86.3995 60.8988 87.3387 59.3519 87.9794C57.805 88.6202 56.147 88.95 54.4727 88.95C52.7983 88.95 51.1403 88.6202 49.5934 87.9794C48.0465 87.3387 46.641 86.3995 45.457 85.2156C44.2731 84.0316 43.3339 82.6261 42.6932 81.0792C42.0524 79.5323 41.7227 77.8743 41.7227 76.2C41.7227 72.8184 43.066 69.5754 45.457 67.1843C47.8481 64.7933 51.0911 63.45 54.4727 63.45" stroke="#008883" stroke-width="2.5" stroke-linecap="round" stroke-linejoin="round"/>
<path d="M61.5883 66.9714C61.3867 66.9714 61.1973 66.9331 61.02 66.8566C60.8427 66.78 60.6885 66.6762 60.5573 66.5452C60.4262 66.4142 60.3224 66.2599 60.246 66.0826C60.1695 65.9052 60.1312 65.7157 60.1311 65.5143C60.131 65.3128 60.1693 65.1234 60.246 64.946C60.3226 64.7686 60.4264 64.6144 60.5573 64.4833C60.6883 64.3523 60.8425 64.2485 61.02 64.172C61.1975 64.0954 61.3869 64.0571 61.5883 64.0571C61.7896 64.0571 61.9791 64.0954 62.1566 64.172C62.334 64.2485 62.4882 64.3523 62.6192 64.4833C62.7501 64.6144 62.854 64.7686 62.9307 64.946C63.0075 65.1234 63.0457 65.3128 63.0454 65.5143C63.0451 65.7157 63.0068 65.9052 62.9306 66.0826C62.8543 66.2599 62.7505 66.4142 62.6192 66.5452C62.4879 66.6762 62.3336 66.7801 62.1566 66.8567C61.9795 66.9334 61.79 66.9716 61.5883 66.9714Z" fill="#1C2851"/>
<path d="M66.2117 71.5173C66.0101 71.5173 65.8207 71.479 65.6434 71.4025C65.4661 71.3259 65.3119 71.2221 65.1807 71.0911C65.0496 70.9601 64.9458 70.8058 64.8693 70.6285C64.7929 70.4511 64.7546 70.2616 64.7545 70.0602C64.7544 69.8587 64.7927 69.6693 64.8693 69.4919C64.946 69.3145 65.0498 69.1603 65.1807 69.0292C65.3117 68.8982 65.4659 68.7944 65.6434 68.7179C65.8209 68.6413 66.0103 68.603 66.2117 68.603C66.413 68.603 66.6025 68.6413 66.7799 68.7179C66.9574 68.7944 67.1116 68.8982 67.2426 69.0292C67.3735 69.1603 67.4774 69.3145 67.5541 69.4919C67.6309 69.6693 67.6691 69.8587 67.6688 70.0602C67.6685 70.2616 67.6302 70.4511 67.554 70.6285C67.4777 70.8058 67.3739 70.9601 67.2426 71.0911C67.1112 71.2221 66.957 71.326 66.7799 71.4026C66.6029 71.4793 66.4134 71.5175 66.2117 71.5173Z" fill="#1C2851"/>
<path d="M54.8054 65.4438C54.5366 65.4438 54.2841 65.3928 54.0477 65.2907C53.8113 65.1887 53.6057 65.0503 53.4308 64.8755C53.256 64.7008 53.1176 64.4952 53.0156 64.2587C52.9137 64.0222 52.8627 63.7696 52.8625 63.501C52.8624 63.2323 52.9135 62.9798 53.0156 62.7432C53.1178 62.5067 53.2562 62.3011 53.4308 62.1264C53.6054 61.9517 53.8111 61.8133 54.0477 61.7112C54.2843 61.6091 54.5369 61.5581 54.8054 61.5581C55.0739 61.5581 55.3265 61.6091 55.5631 61.7112C55.7998 61.8133 56.0054 61.9517 56.18 62.1264C56.3546 62.3011 56.493 62.5067 56.5954 62.7432C56.6977 62.9798 56.7486 63.2323 56.7483 63.501C56.7479 63.7696 56.6968 64.0222 56.5952 64.2587C56.4935 64.4952 56.3551 64.7008 56.18 64.8755C56.0049 65.0503 55.7992 65.1887 55.5631 65.2909C55.327 65.3931 55.0744 65.4441 54.8054 65.4438Z" fill="#008883"/>
<path d="M67.0187 78.7817C66.7499 78.7817 66.4973 78.7307 66.2609 78.6286C66.0246 78.5265 65.8189 78.3882 65.6441 78.2134C65.4692 78.0387 65.3308 77.8331 65.2289 77.5966C65.127 77.3601 65.0759 77.1075 65.0758 76.8389C65.0757 76.5702 65.1267 76.3176 65.2289 76.0811C65.3311 75.8446 65.4695 75.639 65.6441 75.4643C65.8187 75.2896 66.0243 75.1512 66.2609 75.0491C66.4976 74.947 66.7502 74.896 67.0187 74.896C67.2872 74.896 67.5397 74.947 67.7764 75.0491C68.013 75.1512 68.2186 75.2896 68.3932 75.4643C68.5678 75.639 68.7063 75.8446 68.8086 76.0811C68.9109 76.3176 68.9619 76.5702 68.9615 76.8389C68.9611 77.1075 68.9101 77.3601 68.8084 77.5966C68.7067 77.8331 68.5683 78.0387 68.3932 78.2134C68.2181 78.3882 68.0125 78.5266 67.7764 78.6288C67.5403 78.731 67.2877 78.782 67.0187 78.7817Z" fill="#008883"/>
<path d="M60.6343 75.8266L58.9821 74.1796C58.9617 74.1558 58.9489 74.1265 58.9453 74.0954V70.9382C58.9453 70.7987 58.8898 70.6649 58.7911 70.5662C58.6925 70.4675 58.5586 70.4121 58.4191 70.4121H56.8405C56.7009 70.4121 56.5671 70.4675 56.4684 70.5662C56.3697 70.6649 56.3143 70.7987 56.3143 70.9382V71.1908C56.3144 71.2165 56.307 71.2416 56.2929 71.2631C56.2789 71.2846 56.2589 71.3016 56.2354 71.3118C56.2134 71.3259 56.1878 71.3334 56.1617 71.3334C56.1356 71.3334 56.11 71.3259 56.088 71.3118L54.8462 70.0385C54.7973 69.9891 54.7391 69.95 54.675 69.9233C54.6109 69.8966 54.5421 69.8828 54.4726 69.8828C54.4032 69.8828 54.3344 69.8966 54.2703 69.9233C54.2062 69.95 54.148 69.9891 54.099 70.0385L48.3109 75.8266C48.2379 75.9005 48.1885 75.9945 48.1688 76.0966C48.1491 76.1987 48.1601 76.3043 48.2004 76.4001C48.2399 76.4962 48.307 76.5785 48.3931 76.6365C48.4792 76.6946 48.5807 76.7258 48.6845 76.7263H49.3423C49.3772 76.7263 49.4106 76.7402 49.4353 76.7649C49.46 76.7895 49.4738 76.823 49.4738 76.8579V81.9882C49.4738 82.1278 49.5293 82.2616 49.6279 82.3603C49.7266 82.459 49.8605 82.5144 50 82.5144H58.9453C59.0848 82.5144 59.2186 82.459 59.3173 82.3603C59.416 82.2616 59.4714 82.1278 59.4714 81.9882V76.8579C59.4714 76.823 59.4853 76.7895 59.51 76.7649C59.5346 76.7402 59.5681 76.7263 59.603 76.7263H60.2607C60.3646 76.7258 60.466 76.6946 60.5522 76.6365C60.6383 76.5785 60.7053 76.4962 60.7448 76.4001C60.7851 76.3043 60.7961 76.1987 60.7765 76.0966C60.7568 75.9945 60.7073 75.9005 60.6343 75.8266Z" fill="#1C2851"/>
<path d="M132.967 89.5839C130.215 89.5839 127.767 89.0079 125.623 87.8559C123.511 86.7039 121.831 85.1359 120.583 83.1519C119.367 81.1359 118.759 78.8479 118.759 76.2879C118.759 73.6959 119.367 71.4079 120.583 69.4239C121.831 67.4079 123.511 65.8399 125.623 64.7199C127.767 63.5679 130.215 62.9919 132.967 62.9919C135.687 62.9919 138.119 63.5679 140.263 64.7199C142.407 65.8399 144.087 67.3919 145.303 69.3759C146.519 71.3599 147.127 73.6639 147.127 76.2879C147.127 78.8479 146.519 81.1359 145.303 83.1519C144.087 85.1359 142.407 86.7039 140.263 87.8559C138.119 89.0079 135.687 89.5839 132.967 89.5839ZM132.967 83.4399C134.215 83.4399 135.335 83.1519 136.327 82.5759C137.319 81.9999 138.103 81.1839 138.679 80.1279C139.255 79.0399 139.543 77.7599 139.543 76.2879C139.543 74.7839 139.255 73.5039 138.679 72.4479C138.103 71.3919 137.319 70.5759 136.327 69.9999C135.335 69.4239 134.215 69.1359 132.967 69.1359C131.719 69.1359 130.599 69.4239 129.607 69.9999C128.615 70.5759 127.815 71.3919 127.207 72.4479C126.631 73.5039 126.343 74.7839 126.343 76.2879C126.343 77.7599 126.631 79.0399 127.207 80.1279C127.815 81.1839 128.615 81.9999 129.607 82.5759C130.599 83.1519 131.719 83.4399 132.967 83.4399Z" fill="#008883"/>
<path d="M106.473 89.2V65.2H113.473V89.2H106.473Z" fill="#008883"/>
<path d="M113.862 51.7441C114.871 52.7119 115.449 54.0182 115.472 55.3868C115.495 56.7554 114.962 58.079 113.986 59.0777L113.862 59.2007L111.269 61.6856C110.94 62.0008 110.498 62.1843 110.033 62.199C109.568 62.2137 109.115 62.0584 108.765 61.7647L108.677 61.6856L106.084 59.2001C105.052 58.2114 104.473 56.8704 104.473 55.4721C104.473 54.0739 105.052 52.7329 106.084 51.7441C107.115 50.7554 108.514 50.2 109.973 50.2C111.431 50.2 112.83 50.7554 113.862 51.7441ZM109.973 53.7147C109.732 53.7147 109.493 53.7602 109.271 53.8485C109.049 53.9368 108.846 54.0663 108.676 54.2295C108.506 54.3927 108.371 54.5864 108.279 54.7996C108.187 55.0128 108.139 55.2413 108.139 55.4721C108.139 55.7029 108.187 55.9314 108.279 56.1446C108.371 56.3579 108.506 56.5516 108.676 56.7148C108.846 56.878 109.049 57.0074 109.271 57.0957C109.493 57.184 109.732 57.2295 109.973 57.2295C110.459 57.2295 110.925 57.0443 111.269 56.7148C111.613 56.3852 111.806 55.9382 111.806 55.4721C111.806 55.006 111.613 54.559 111.269 54.2295C110.925 53.8999 110.459 53.7147 109.973 53.7147Z" fill="#1C2851"/>
<path d="M88.3651 89.5839C86.1891 89.5839 84.2851 89.1039 82.6531 88.1439C81.0211 87.1839 79.7411 85.7279 78.8131 83.7759C77.9171 81.7919 77.4691 79.2959 77.4691 76.2879C77.4691 73.2479 77.9011 70.7519 78.7651 68.7999C79.6291 66.8479 80.8771 65.3919 82.5091 64.4319C84.1411 63.4719 86.0931 62.9919 88.3651 62.9919C90.7971 62.9919 92.9731 63.5519 94.8931 64.6719C96.8451 65.7599 98.3811 67.2959 99.5011 69.2799C100.653 71.2639 101.229 73.5999 101.229 76.2879C101.229 79.0079 100.653 81.3599 99.5011 83.3439C98.3811 85.3279 96.8451 86.8639 94.8931 87.9519C92.9731 89.0399 90.7971 89.5839 88.3651 89.5839ZM73.1011 98.5119V63.3759H80.2531V68.6559L80.1091 76.3359L80.5891 83.9679V98.5119H73.1011ZM87.0691 83.4399C88.3171 83.4399 89.4211 83.1519 90.3811 82.5759C91.3731 81.9999 92.1571 81.1839 92.7331 80.1279C93.3411 79.0399 93.6451 77.7599 93.6451 76.2879C93.6451 74.7839 93.3411 73.5039 92.7331 72.4479C92.1571 71.3919 91.3731 70.5759 90.3811 69.9999C89.4211 69.4239 88.3171 69.1359 87.0691 69.1359C85.8211 69.1359 84.7011 69.4239 83.7091 69.9999C82.7171 70.5759 81.9331 71.3919 81.3571 72.4479C80.7811 73.5039 80.4931 74.7839 80.4931 76.2879C80.4931 77.7599 80.7811 79.0399 81.3571 80.1279C81.9331 81.1839 82.7171 81.9999 83.7091 82.5759C84.7011 83.1519 85.8211 83.4399 87.0691 83.4399Z" fill="#008883"/>
<path d="M20.845 89.86C17.875 89.86 15.1067 89.3834 12.54 88.43C10.01 87.44 7.81001 86.0467 5.94001 84.25C4.07001 82.4534 2.60333 80.345 1.54 77.925C0.513334 75.505 0 72.8467 0 69.95C0 67.0534 0.513334 64.395 1.54 61.975C2.60333 59.555 4.07001 57.4467 5.94001 55.65C7.84668 53.8534 10.065 52.4784 12.595 51.525C15.125 50.535 17.8933 50.04 20.9 50.04C24.2367 50.04 27.2433 50.6267 29.92 51.8C32.6333 52.9367 34.9067 54.6234 36.74 56.86L31.02 62.14C29.7 60.6367 28.2333 59.5184 26.62 58.785C25.0067 58.015 23.2467 57.63 21.34 57.63C19.5433 57.63 17.8933 57.9234 16.39 58.51C14.8867 59.0967 13.585 59.94 12.485 61.04C11.385 62.14 10.5233 63.4417 9.9 64.945C9.31333 66.4484 9.02 68.1167 9.02 69.95C9.02 71.7834 9.31333 73.4517 9.9 74.955C10.5233 76.4584 11.385 77.76 12.485 78.86C13.585 79.96 14.8867 80.8034 16.39 81.39C17.8933 81.9767 19.5433 82.27 21.34 82.27C23.2467 82.27 25.0067 81.9034 26.62 81.17C28.2333 80.4 29.7 79.245 31.02 77.705L36.74 82.985C34.9067 85.2217 32.6333 86.9267 29.92 88.1C27.2433 89.2734 24.2183 89.86 20.845 89.86Z" fill="#008883"/>
<path d="M107.288 15.6504C109.649 15.6504 111.775 16.2079 113.657 17.3301L114.011 17.5449C115.752 18.6422 117.133 20.1023 118.151 21.9209L118.355 22.29C119.342 24.1525 119.83 26.2829 119.83 28.6719C119.83 31.189 119.274 33.4272 118.151 35.375C117.065 37.315 115.566 38.8469 113.657 39.9658L113.655 39.9668C111.773 41.0565 109.648 41.5976 107.288 41.5977C104.993 41.5977 102.916 41.0724 101.066 40.0156L101.062 40.0137C99.3638 39.0126 97.9878 37.6478 96.9336 35.9268V50.7656H94.6504V15.8418H96.8857V21.4873C97.9454 19.7029 99.3379 18.2985 101.062 17.2822C102.912 16.1922 104.991 15.6504 107.288 15.6504ZM107.24 17.8379C105.249 17.8379 103.489 18.3043 101.948 19.2285L101.943 19.2305C100.4 20.1259 99.1795 21.3756 98.2812 22.9863C97.3871 24.5897 96.9336 26.4811 96.9336 28.6719C96.9336 30.7965 97.3869 32.6733 98.2832 34.3115C99.1819 35.954 100.401 37.2188 101.943 38.1133C103.484 39.0071 105.247 39.458 107.24 39.458C109.2 39.458 110.946 39.0075 112.488 38.1133L112.491 38.1113C114.065 37.2164 115.3 35.9522 116.197 34.3115C117.094 32.6733 117.546 30.7964 117.546 28.6719C117.546 26.4811 117.092 24.5897 116.198 22.9863C115.301 21.3775 114.067 20.1283 112.491 19.2324L112.483 19.2285V19.2275C110.942 18.3031 109.198 17.8379 107.24 17.8379Z" fill="#1C2851" stroke="#1C2851" stroke-width="0.7"/>
<path d="M77.2881 15.6504C79.6488 15.6504 81.775 16.2079 83.6572 17.3301L84.0107 17.5449C85.7519 18.6422 87.1333 20.1023 88.1514 21.9209L88.3555 22.29C89.3417 24.1525 89.8301 26.2829 89.8301 28.6719C89.8301 31.189 89.2738 33.4272 88.1514 35.375C87.0654 37.315 85.5658 38.8469 83.6572 39.9658L83.6553 39.9668C81.7731 41.0565 79.6477 41.5976 77.2881 41.5977C74.9925 41.5977 72.9158 41.0724 71.0664 40.0156L71.0625 40.0137C69.3638 39.0126 67.9878 37.6478 66.9336 35.9268V50.7656H64.6504V15.8418H66.8857V21.4873C67.9454 19.7029 69.3379 18.2985 71.0625 17.2822C72.9124 16.1922 74.9907 15.6504 77.2881 15.6504ZM77.2402 17.8379C75.2493 17.8379 73.4886 18.3043 71.9482 19.2285L71.9434 19.2305C70.3995 20.1259 69.1795 21.3756 68.2812 22.9863C67.3871 24.5897 66.9336 26.4811 66.9336 28.6719C66.9336 30.7965 67.3869 32.6733 68.2832 34.3115C69.1819 35.954 70.4013 37.2188 71.9434 38.1133C73.4844 39.0071 75.2471 39.458 77.2402 39.458C79.2001 39.458 80.9465 39.0075 82.4883 38.1133L82.4912 38.1113C84.0649 37.2164 85.2995 35.9522 86.1973 34.3115C87.0935 32.6733 87.5459 30.7964 87.5459 28.6719C87.5459 26.4811 87.0924 24.5897 86.1982 22.9863C85.301 21.3775 84.0666 20.1283 82.4912 19.2324L82.4834 19.2285V19.2275C80.9424 18.3031 79.1977 17.8379 77.2402 17.8379Z" fill="#1C2851" stroke="#1C2851" stroke-width="0.7"/>
<path d="M41.2158 0.650391L41.3096 0.852539L59.4541 40.0527L59.6836 40.5498H56.8398L56.7461 40.3457L51.5664 29.0703H28.5693L23.3896 40.3457L23.2959 40.5498H20.4521L20.6826 40.0527L38.8262 0.852539L38.9199 0.650391H41.2158ZM29.6367 26.7461H50.499L40.0674 4.04004L29.6367 26.7461Z" fill="#1C2851" stroke="#1C2851" stroke-width="0.7"/>
</svg>
