<svg width="93" height="93" viewBox="0 0 93 93" fill="none" xmlns="http://www.w3.org/2000/svg">
<path d="M81.0439 46.3108C81.0439 50.872 80.1455 55.3886 78.4 59.6026C76.6545 63.8166 74.0961 67.6455 70.8708 70.8708C67.6455 74.0961 63.8166 76.6545 59.6026 78.4C55.3886 80.1455 50.872 81.0439 46.3108 81.0439C41.7496 81.0439 37.233 80.1455 33.019 78.4C28.805 76.6545 24.976 74.0961 21.7507 70.8708C18.5255 67.6455 15.967 63.8166 14.2215 59.6026C12.476 55.3886 11.5776 50.872 11.5776 46.3108C11.5776 37.099 15.237 28.2645 21.7507 21.7507C28.2645 15.237 37.099 11.5776 46.3108 11.5776" stroke="#008883" stroke-width="3.5" stroke-linecap="round" stroke-linejoin="round"/>
<path d="M81.0439 46.3108C81.0439 50.872 80.1455 55.3886 78.4 59.6026C76.6545 63.8166 74.0961 67.6455 70.8708 70.8708C67.6455 74.0961 63.8166 76.6545 59.6026 78.4C55.3886 80.1455 50.872 81.0439 46.3108 81.0439C41.7496 81.0439 37.233 80.1455 33.019 78.4C28.805 76.6545 24.976 74.0961 21.7507 70.8708C18.5255 67.6455 15.967 63.8166 14.2215 59.6026C12.476 55.3886 11.5776 50.872 11.5776 46.3108C11.5776 37.099 15.237 28.2645 21.7507 21.7507C28.2645 15.237 37.099 11.5776 46.3108 11.5776" stroke="#008883" stroke-width="3.5" stroke-linecap="round" stroke-linejoin="round"/>
<path d="M65.6951 21.1707C65.146 21.1707 64.6299 21.0664 64.147 20.8579C63.664 20.6494 63.2439 20.3666 62.8867 20.0096C62.5294 19.6526 62.2466 19.2325 62.0384 18.7493C61.8301 18.2661 61.7259 17.75 61.7256 17.2012C61.7253 16.6523 61.8296 16.1363 62.0384 15.6531C62.2472 15.1699 62.5299 14.7498 62.8867 14.3928C63.2434 14.0358 63.6635 13.753 64.147 13.5445C64.6305 13.336 65.1465 13.2317 65.6951 13.2317C66.2437 13.2317 66.7597 13.336 67.2432 13.5445C67.7267 13.753 68.1468 14.0358 68.5035 14.3928C68.8602 14.7498 69.1431 15.1699 69.3522 15.6531C69.5612 16.1363 69.6654 16.6523 69.6646 17.2012C69.6638 17.75 69.5595 18.2661 69.3518 18.7493C69.1441 19.2325 68.8613 19.6526 68.5035 20.0096C68.1457 20.3666 67.7256 20.6495 67.2432 20.8583C66.7608 21.0671 66.2447 21.1712 65.6951 21.1707Z" fill="#1C2851"/>
<path d="M78.2898 33.5545C77.7407 33.5545 77.2247 33.4502 76.7417 33.2417C76.2588 33.0332 75.8386 32.7504 75.4814 32.3934C75.1241 32.0364 74.8414 31.6163 74.6331 31.1331C74.4248 30.6499 74.3206 30.1338 74.3203 29.585C74.32 29.0361 74.4243 28.5201 74.6331 28.0369C74.8419 27.5537 75.1247 27.1335 75.4814 26.7766C75.8381 26.4196 76.2582 26.1368 76.7417 25.9283C77.2252 25.7197 77.7412 25.6155 78.2898 25.6155C78.8384 25.6155 79.3544 25.7197 79.8379 25.9283C80.3214 26.1368 80.7415 26.4196 81.0982 26.7766C81.455 27.1335 81.7379 27.5537 81.9469 28.0369C82.156 28.5201 82.2601 29.0361 82.2593 29.585C82.2585 30.1338 82.1543 30.6499 81.9465 31.1331C81.7388 31.6163 81.456 32.0364 81.0982 32.3934C80.7404 32.7504 80.3203 33.0333 79.8379 33.2421C79.3555 33.4509 78.8395 33.555 78.2898 33.5545Z" fill="#1C2851"/>
<path d="M47.2172 17.0094C46.4851 17.0094 45.797 16.8704 45.1531 16.5923C44.5091 16.3143 43.949 15.9373 43.4727 15.4613C42.9963 14.9853 42.6193 14.4252 42.3416 13.7809C42.0639 13.1366 41.9249 12.4485 41.9246 11.7167C41.9242 10.9849 42.0632 10.2969 42.3416 9.6526C42.62 9.00831 42.997 8.44816 43.4727 7.97218C43.9483 7.49619 44.5084 7.11918 45.1531 6.84113C45.7977 6.56309 46.4858 6.42407 47.2172 6.42407C47.9487 6.42407 48.6367 6.56309 49.2814 6.84113C49.926 7.11918 50.4862 7.49619 50.9618 7.97218C51.4374 8.44816 51.8146 9.00831 52.0934 9.6526C52.3721 10.2969 52.511 10.9849 52.5099 11.7167C52.5088 12.4485 52.3698 13.1366 52.0928 13.7809C51.8158 14.4252 51.4388 14.9853 50.9618 15.4613C50.4847 15.9373 49.9246 16.3145 49.2814 16.5929C48.6381 16.8713 47.9501 17.0101 47.2172 17.0094Z" fill="#008883"/>
<path d="M80.4882 53.3441C79.7561 53.3441 79.068 53.2051 78.4241 52.9271C77.7801 52.649 77.22 52.272 76.7437 51.796C76.2673 51.32 75.8903 50.7599 75.6126 50.1156C75.3349 49.4713 75.1959 48.7833 75.1956 48.0515C75.1952 47.3197 75.3342 46.6316 75.6126 45.9873C75.891 45.343 76.268 44.7829 76.7437 44.3069C77.2193 43.8309 77.7794 43.4539 78.4241 43.1759C79.0687 42.8978 79.7568 42.7588 80.4882 42.7588C81.2197 42.7588 81.9077 42.8978 82.5524 43.1759C83.197 43.4539 83.7571 43.8309 84.2328 44.3069C84.7084 44.7829 85.0856 45.343 85.3644 45.9873C85.6431 46.6316 85.7819 47.3197 85.7809 48.0515C85.7798 48.7833 85.6408 49.4713 85.3638 50.1156C85.0868 50.7599 84.7098 51.32 84.2328 51.796C83.7557 52.272 83.1956 52.6492 82.5524 52.9276C81.9091 53.206 81.2211 53.3448 80.4882 53.3441Z" fill="#008883"/>
<path d="M63.0964 45.2931L58.5954 40.8064C58.5399 40.7416 58.505 40.6618 58.495 40.5771V31.9765C58.495 31.5963 58.344 31.2317 58.0752 30.9629C57.8064 30.6941 57.4418 30.5431 57.0616 30.5431H52.7613C52.3811 30.5431 52.0165 30.6941 51.7477 30.9629C51.4789 31.2317 51.3279 31.5963 51.3279 31.9765V32.6645C51.3281 32.7345 51.3079 32.803 51.2697 32.8615C51.2315 32.9201 51.177 32.9663 51.1129 32.9942C51.0529 33.0325 50.9833 33.0529 50.9122 33.0529C50.8411 33.0529 50.7714 33.0325 50.7115 32.9942L47.3286 29.5253C47.1954 29.391 47.0368 29.2843 46.8621 29.2116C46.6875 29.1388 46.5001 29.1013 46.3109 29.1013C46.1216 29.1013 45.9343 29.1388 45.7596 29.2116C45.5849 29.2843 45.4264 29.391 45.2931 29.5253L29.5254 45.2931C29.3265 45.4946 29.1918 45.7506 29.1382 46.0287C29.0846 46.3068 29.1146 46.5945 29.2244 46.8555C29.3319 47.1173 29.5145 47.3414 29.7492 47.4995C29.9839 47.6577 30.2601 47.7428 30.5431 47.7442H32.3349C32.43 47.7442 32.5211 47.782 32.5883 47.8492C32.6555 47.9164 32.6933 48.0075 32.6933 48.1026V62.0785C32.6933 62.4587 32.8443 62.8233 33.1131 63.0921C33.3819 63.361 33.7465 63.512 34.1267 63.512H58.495C58.8752 63.512 59.2398 63.361 59.5086 63.0921C59.7775 62.8233 59.9285 62.4587 59.9285 62.0785V48.1026C59.9285 48.0075 59.9662 47.9164 60.0334 47.8492C60.1006 47.782 60.1918 47.7442 60.2868 47.7442H62.0786C62.3616 47.7428 62.6379 47.6577 62.8725 47.4995C63.1072 47.3414 63.2898 47.1173 63.3974 46.8555C63.5071 46.5945 63.5371 46.3068 63.4836 46.0287C63.43 45.7506 63.2953 45.4946 63.0964 45.2931Z" fill="#1C2851"/>
</svg>
